<svg width="48" height="48" viewBox="0 0 48 48" fill="none" xmlns="http://www.w3.org/2000/svg">
<path d="M40 26C40 36 33 41 24.68 43.9C24.2443 44.0477 23.7711 44.0406 23.34 43.88C15 41 8 36 8 26V12C8 11.4696 8.21071 10.9609 8.58579 10.5858C8.96086 10.2108 9.46957 10 10 10C14 10 19 7.60004 22.48 4.56004C22.9037 4.19804 23.4427 3.99915 24 3.99915C24.5573 3.99915 25.0963 4.19804 25.52 4.56004C29.02 7.62004 34 10 38 10C38.5304 10 39.0391 10.2108 39.4142 10.5858C39.7893 10.9609 40 11.4696 40 12V26Z" stroke="#00A5A8" stroke-width="3" stroke-linecap="round" stroke-linejoin="round"/>
</svg>
