<svg width="35" height="35" viewBox="0 0 35 35" fill="none" xmlns="http://www.w3.org/2000/svg">
<circle cx="17.5" cy="17.5" r="17.5" fill="#00A5A8"/>
<path d="M16.0188 8.49976C16.2179 8.49927 16.415 8.5394 16.5979 8.61792C16.7808 8.69646 16.9455 8.81212 17.0823 8.95679L17.0852 8.95972L25.3459 17.5642V17.5652C25.4357 17.6624 25.4869 17.7867 25.4963 17.9158C25.4625 18.0939 25.3992 18.2644 25.3088 18.4216L17.0842 27.0437L17.0833 27.0447C16.9462 27.1892 16.781 27.3043 16.5979 27.3826C16.4149 27.4608 16.2178 27.5006 16.0188 27.4998C15.8197 27.4989 15.6221 27.4575 15.4397 27.3777C15.2623 27.3001 15.1025 27.1876 14.969 27.0476L14.9592 27.0339L14.9456 27.0173L14.9319 27.0027L14.8333 26.8845C14.6171 26.6001 14.4991 26.2514 14.5002 25.8914C14.5017 25.4797 14.6588 25.0829 14.9397 24.782L14.9387 24.781L20.4524 19.0271L20.4875 18.99L20.5149 18.947C20.6897 18.6686 20.8086 18.357 20.8625 18.031L20.8694 17.9871V17.9421C20.864 17.5625 20.7148 17.1989 20.4524 16.9246L20.4514 16.9236L14.9348 11.1912C14.6571 10.8934 14.5017 10.5017 14.5002 10.0945C14.4991 9.73668 14.6167 9.3902 14.8323 9.10815L14.9309 8.99097L14.9348 8.98608L14.9573 8.96167C15.0932 8.81644 15.2573 8.70028 15.4397 8.62085C15.6223 8.54139 15.8197 8.50024 16.0188 8.49976Z" fill="white" stroke="#00A5A8"/>
</svg>
