<svg width="57" height="18" viewBox="0 0 57 18" fill="none" xmlns="http://www.w3.org/2000/svg">
<path d="M2.87992 16.944V14.016H6.86392C7.59992 14.016 8.17592 13.8 8.59192 13.368C9.00792 12.936 9.21592 12.408 9.21592 11.784C9.21592 11.352 9.11992 10.968 8.92792 10.632C8.73592 10.296 8.46392 10.032 8.11192 9.84C7.77592 9.648 7.35992 9.552 6.86392 9.552H2.87992V6.696H6.55192C7.17592 6.696 7.67992 6.544 8.06392 6.24C8.44792 5.92 8.63992 5.44 8.63992 4.8C8.63992 4.176 8.44792 3.712 8.06392 3.408C7.67992 3.088 7.17592 2.928 6.55192 2.928H2.87992V-4.76837e-07H7.27192C8.35992 -4.76837e-07 9.27992 0.199999 10.0319 0.599999C10.7999 1 11.3839 1.536 11.7839 2.208C12.1839 2.88 12.3839 3.624 12.3839 4.44C12.3839 5.48 12.0479 6.36 11.3759 7.08C10.7039 7.8 9.71192 8.296 8.39992 8.568L8.49592 7.296C9.91992 7.568 11.0159 8.12 11.7839 8.952C12.5679 9.784 12.9599 10.808 12.9599 12.024C12.9599 12.952 12.7279 13.792 12.2639 14.544C11.8159 15.28 11.1599 15.864 10.2959 16.296C9.44792 16.728 8.42392 16.944 7.22392 16.944H2.87992ZM-7.99894e-05 16.944V-4.76837e-07H3.71992V16.944H-7.99894e-05ZM15.6149 16.944V-4.76837e-07H18.3029L24.9749 10.392H23.6069L30.2549 -4.76837e-07H32.9669V16.944H29.1989V6.36L29.8709 6.528L25.5269 13.296H23.0309L18.7109 6.528L19.3589 6.36V16.944H15.6149ZM39.3365 9.96V7.176H42.9125C43.6645 7.176 44.2405 6.984 44.6405 6.6C45.0565 6.216 45.2645 5.696 45.2645 5.04C45.2645 4.432 45.0645 3.928 44.6645 3.528C44.2645 3.128 43.6885 2.928 42.9365 2.928H39.3365V-4.76837e-07H43.3685C44.4885 -4.76837e-07 45.4725 0.216 46.3205 0.648C47.1685 1.064 47.8325 1.648 48.3125 2.4C48.7925 3.152 49.0325 4.016 49.0325 4.992C49.0325 5.984 48.7925 6.856 48.3125 7.608C47.8325 8.344 47.1605 8.92 46.2965 9.336C45.4325 9.752 44.4165 9.96 43.2485 9.96H39.3365ZM36.4565 16.944V-4.76837e-07H40.2245V16.944H36.4565ZM45.6725 16.944L40.3925 9.648L43.8485 8.712L50.1365 16.944H45.6725ZM54.3207 17.208C53.6967 17.208 53.1767 16.992 52.7607 16.56C52.3447 16.128 52.1367 15.608 52.1367 15C52.1367 14.36 52.3447 13.832 52.7607 13.416C53.1767 12.984 53.6967 12.768 54.3207 12.768C54.9607 12.768 55.4807 12.984 55.8807 13.416C56.2967 13.832 56.5047 14.36 56.5047 15C56.5047 15.608 56.2967 16.128 55.8807 16.56C55.4807 16.992 54.9607 17.208 54.3207 17.208Z" fill="white"/>
</svg>
