<svg width="48" height="48" viewBox="0 0 48 48" fill="none" xmlns="http://www.w3.org/2000/svg">
<path d="M42 32H34C32.8954 32 32 32.8954 32 34V42C32 43.1046 32.8954 44 34 44H42C43.1046 44 44 43.1046 44 42V34C44 32.8954 43.1046 32 42 32Z" stroke="#00A5A8" stroke-width="3" stroke-linecap="round" stroke-linejoin="round"/>
<path d="M14 32H6C4.89543 32 4 32.8954 4 34V42C4 43.1046 4.89543 44 6 44H14C15.1046 44 16 43.1046 16 42V34C16 32.8954 15.1046 32 14 32Z" stroke="#00A5A8" stroke-width="3" stroke-linecap="round" stroke-linejoin="round"/>
<path d="M28 4H20C18.8954 4 18 4.89543 18 6V14C18 15.1046 18.8954 16 20 16H28C29.1046 16 30 15.1046 30 14V6C30 4.89543 29.1046 4 28 4Z" stroke="#00A5A8" stroke-width="3" stroke-linecap="round" stroke-linejoin="round"/>
<path d="M10 32V26C10 25.4696 10.2107 24.9609 10.5858 24.5858C10.9609 24.2107 11.4696 24 12 24H36C36.5304 24 37.0391 24.2107 37.4142 24.5858C37.7893 24.9609 38 25.4696 38 26V32" stroke="#00A5A8" stroke-width="3" stroke-linecap="round" stroke-linejoin="round"/>
<path d="M24 24V16" stroke="#00A5A8" stroke-width="3" stroke-linecap="round" stroke-linejoin="round"/>
</svg>
