<svg width="26" height="26" viewBox="0 0 26 26" fill="none" xmlns="http://www.w3.org/2000/svg">
<circle cx="13" cy="13" r="12.5" stroke="#00A5A8"/>
<path d="M10.4688 10.375H7.09375C6.89484 10.375 6.70407 10.296 6.56342 10.1553C6.42277 10.0147 6.34375 9.82391 6.34375 9.625V6.25C6.34375 6.05109 6.42277 5.86032 6.56342 5.71967C6.70407 5.57902 6.89484 5.5 7.09375 5.5C7.29266 5.5 7.48343 5.57902 7.62408 5.71967C7.76473 5.86032 7.84375 6.05109 7.84375 6.25V8.875H10.4688C10.6677 8.875 10.8584 8.95402 10.9991 9.09467C11.1397 9.23532 11.2188 9.42609 11.2188 9.625C11.2188 9.82391 11.1397 10.0147 10.9991 10.1553C10.8584 10.296 10.6677 10.375 10.4688 10.375Z" fill="#00A5A8"/>
<path d="M19.7501 13.75C19.5511 13.75 19.3604 13.671 19.2197 13.5303C19.0791 13.3897 19.0001 13.1989 19.0001 13C19.0006 11.6797 18.5654 10.396 17.7619 9.34834C16.9584 8.30064 15.8315 7.54743 14.5562 7.20561C13.2808 6.86378 11.9283 6.95245 10.7086 7.45785C9.48877 7.96325 8.4699 8.85713 7.81005 10.0008C7.71039 10.1729 7.54643 10.2984 7.35423 10.3497C7.16203 10.401 6.95733 10.3738 6.78517 10.2741C6.61302 10.1745 6.4875 10.0105 6.43623 9.81832C6.38496 9.62612 6.41214 9.42142 6.5118 9.24927C7.33699 7.81994 8.61082 6.7029 10.1357 6.07143C11.6605 5.43996 13.3511 5.32937 14.9452 5.75681C16.5393 6.18425 17.9478 7.12582 18.9522 8.43546C19.9566 9.7451 20.5007 11.3496 20.5001 13C20.5001 13.1989 20.421 13.3897 20.2804 13.5303C20.1397 13.671 19.949 13.75 19.7501 13.75ZM18.9063 20.5C18.7074 20.5 18.5166 20.421 18.376 20.2803C18.2353 20.1397 18.1563 19.9489 18.1563 19.75V17.125H15.5313C15.3324 17.125 15.1416 17.046 15.001 16.9053C14.8603 16.7647 14.7813 16.5739 14.7813 16.375C14.7813 16.1761 14.8603 15.9853 15.001 15.8447C15.1416 15.704 15.3324 15.625 15.5313 15.625H18.9063C19.1052 15.625 19.296 15.704 19.4366 15.8447C19.5773 15.9853 19.6563 16.1761 19.6563 16.375V19.75C19.6563 19.9489 19.5773 20.1397 19.4366 20.2803C19.296 20.421 19.1052 20.5 18.9063 20.5Z" fill="#00A5A8"/>
<path d="M13 20.5C11.0116 20.4976 9.10534 19.7067 7.69933 18.3007C6.29332 16.8947 5.50238 14.9884 5.5 13C5.5 12.8011 5.57902 12.6103 5.71967 12.4697C5.86032 12.329 6.05109 12.25 6.25 12.25C6.44891 12.25 6.63968 12.329 6.78033 12.4697C6.92098 12.6103 7 12.8011 7 13C6.99943 14.3203 7.43467 15.604 8.23818 16.6517C9.04169 17.6994 10.1685 18.4526 11.4439 18.7944C12.7192 19.1362 14.0717 19.0476 15.2915 18.5422C16.5113 18.0368 17.5301 17.1429 18.19 15.9992C18.2393 15.914 18.305 15.8393 18.3832 15.7794C18.4614 15.7196 18.5507 15.6757 18.6458 15.6503C18.741 15.6249 18.8402 15.6185 18.9379 15.6315C19.0355 15.6445 19.1296 15.6765 19.2149 15.7259C19.3001 15.7752 19.3748 15.8409 19.4347 15.9191C19.4946 15.9973 19.5384 16.0865 19.5638 16.1817C19.5892 16.2769 19.5956 16.3761 19.5826 16.4737C19.5697 16.5714 19.5376 16.6655 19.4882 16.7507C18.8286 17.8881 17.8825 18.8328 16.7441 19.4906C15.6057 20.1484 14.3148 20.4964 13 20.5Z" fill="#00A5A8"/>
</svg>
