<svg width="32" height="32" viewBox="0 0 32 32" fill="none" xmlns="http://www.w3.org/2000/svg">
<path d="M16.0001 29.3334C23.3639 29.3334 29.3334 23.3638 29.3334 16C29.3334 8.63622 23.3639 2.66669 16.0001 2.66669C8.63628 2.66669 2.66675 8.63622 2.66675 16C2.66675 23.3638 8.63628 29.3334 16.0001 29.3334Z" stroke="#00A5A8" stroke-width="2.66667" stroke-linecap="round" stroke-linejoin="round"/>
<path d="M16 24C20.4183 24 24 20.4183 24 16C24 11.5817 20.4183 8 16 8C11.5817 8 8 11.5817 8 16C8 20.4183 11.5817 24 16 24Z" stroke="#00A5A8" stroke-width="2.66667" stroke-linecap="round" stroke-linejoin="round"/>
<path d="M15.9999 18.6666C17.4727 18.6666 18.6666 17.4727 18.6666 16C18.6666 14.5272 17.4727 13.3333 15.9999 13.3333C14.5272 13.3333 13.3333 14.5272 13.3333 16C13.3333 17.4727 14.5272 18.6666 15.9999 18.6666Z" stroke="#00A5A8" stroke-width="2.66667" stroke-linecap="round" stroke-linejoin="round"/>
</svg>
