<svg width="32" height="32" viewBox="0 0 32 32" fill="none" xmlns="http://www.w3.org/2000/svg">
<path d="M26.6666 17.3333C26.6666 24 21.9999 27.3333 16.4533 29.2666C16.1628 29.3651 15.8473 29.3604 15.5599 29.2533C9.99992 27.3333 5.33325 24 5.33325 17.3333V7.99998C5.33325 7.64636 5.47373 7.30722 5.72378 7.05717C5.97383 6.80712 6.31296 6.66665 6.66659 6.66665C9.33325 6.66665 12.6666 5.06665 14.9866 3.03998C15.2691 2.79864 15.6284 2.66605 15.9999 2.66605C16.3714 2.66605 16.7308 2.79864 17.0133 3.03998C19.3466 5.07998 22.6666 6.66665 25.3333 6.66665C25.6869 6.66665 26.026 6.80712 26.2761 7.05717C26.5261 7.30722 26.6666 7.64636 26.6666 7.99998V17.3333Z" stroke="#00A5A8" stroke-width="2.66667" stroke-linecap="round" stroke-linejoin="round"/>
</svg>
