<svg width="40" height="40" viewBox="0 0 40 40" fill="none" xmlns="http://www.w3.org/2000/svg">
<rect width="40" height="40" rx="20" fill="white" fill-opacity="0.1"/>
<g clip-path="url(#clip0_12_374)">
<g clip-path="url(#clip1_12_374)">
<g clip-path="url(#clip2_12_374)">
<path d="M13.3687 19.9139C13.3687 18.9346 13.3634 17.9552 13.3687 16.976C13.3718 16.1214 13.6445 15.2897 14.148 14.5993C14.6514 13.9088 15.3599 13.3948 16.1726 13.1306C16.5674 13.0026 16.9792 12.9337 17.3942 12.9261C19.3581 12.9046 21.3231 12.9078 23.287 12.9185C24.2709 12.917 25.2219 13.2725 25.9635 13.919C26.7051 14.5655 27.187 15.459 27.3198 16.4338C27.3653 16.8698 27.3807 17.3083 27.3658 17.7463C27.3701 19.4199 27.3701 21.0938 27.3658 22.7681C27.3815 23.7575 27.0365 24.7189 26.3951 25.4723C25.7536 26.2257 24.8598 26.7198 23.8805 26.8621C23.4678 26.9113 23.0518 26.9287 22.6365 26.9146C20.9286 26.9195 19.2208 26.9195 17.5129 26.9146C16.5203 26.932 15.556 26.5853 14.8016 25.94C14.0473 25.2947 13.5555 24.3954 13.4192 23.4121C13.363 22.8286 13.3454 22.2419 13.3666 21.656C13.3591 21.0753 13.3666 20.4946 13.3666 19.9139H13.3687ZM20.362 16.4189C19.6708 16.42 18.9953 16.626 18.4211 17.0109C17.847 17.3958 17.3998 17.9422 17.1362 18.5813C16.8727 19.2203 16.8047 19.9232 16.9406 20.6009C17.0765 21.2787 17.4103 21.9009 17.8998 22.389C18.3893 22.877 19.0127 23.209 19.6908 23.3427C20.369 23.4766 21.0715 23.4063 21.7097 23.1407C22.3479 22.8752 22.8931 22.4265 23.2763 21.8511C23.6594 21.2758 23.8633 20.5998 23.8622 19.9085C23.8618 19.4495 23.771 18.995 23.5949 18.5711C23.4188 18.1472 23.1606 17.7623 22.8355 17.4382C22.5104 17.1141 22.1247 16.8572 21.7003 16.6823C21.2759 16.5075 20.8211 16.4179 20.362 16.4189ZM24.4505 15.2499C24.3359 15.2495 24.2237 15.283 24.128 15.3462C24.0324 15.4094 23.9574 15.4994 23.9127 15.605C23.868 15.7106 23.8556 15.8269 23.8769 15.9396C23.8981 16.0522 23.9521 16.1562 24.0323 16.2382C24.1124 16.3202 24.2149 16.3768 24.3271 16.4008C24.4392 16.4247 24.5558 16.4149 24.6624 16.3728C24.769 16.3306 24.8609 16.2578 24.9264 16.1636C24.9917 16.0695 25.0278 15.9581 25.0302 15.8435C25.0311 15.7664 25.0169 15.6899 24.9883 15.6184C24.9597 15.5468 24.9174 15.4816 24.8636 15.4265C24.8097 15.3714 24.7453 15.3274 24.6745 15.2971C24.6035 15.2668 24.5276 15.2508 24.4505 15.2499Z" fill="#00A5A8"/>
<path d="M20.3664 22.2427C19.9056 22.2425 19.4552 22.1057 19.0721 21.8495C18.689 21.5934 18.3903 21.2293 18.2141 20.8035C18.0379 20.3777 17.992 19.9091 18.082 19.4571C18.1721 19.0052 18.3941 18.59 18.72 18.2642C19.046 17.9384 19.4613 17.7166 19.9134 17.6267C20.3654 17.5369 20.8337 17.5831 21.2594 17.7595C21.6852 17.9359 22.0492 18.2347 22.3052 18.6179C22.5612 19.0011 22.6979 19.4516 22.6979 19.9124C22.6991 20.2189 22.6396 20.5226 22.5229 20.806C22.4061 21.0894 22.2345 21.3467 22.0178 21.5634C21.801 21.78 21.5434 21.9516 21.26 22.0682C20.9765 22.1848 20.6729 22.2441 20.3664 22.2427Z" fill="#00A5A8"/>
</g>
</g>
</g>
<defs>
<clipPath id="clip0_12_374">
<rect width="15" height="15" fill="white" transform="translate(12.5 12.5)"/>
</clipPath>
<clipPath id="clip1_12_374">
<rect width="15" height="15" fill="white" transform="translate(12.5 12.5)"/>
</clipPath>
<clipPath id="clip2_12_374">
<rect width="15" height="15" fill="white" transform="translate(12.5 12.5)"/>
</clipPath>
</defs>
</svg>
