<svg width="40" height="40" viewBox="0 0 40 40" fill="none" xmlns="http://www.w3.org/2000/svg">
<rect width="40" height="40" rx="20" fill="white" fill-opacity="0.1"/>
<g clip-path="url(#clip0_12_380)">
<g clip-path="url(#clip1_12_380)">
<g clip-path="url(#clip2_12_380)">
<path d="M17.8555 17.854H20.8784V19.1101C21.2616 18.5294 21.8147 18.0812 22.4622 17.8265C23.1096 17.5719 23.8198 17.5233 24.4958 17.6874C25.1719 17.8515 25.7808 18.2203 26.2395 18.7434C26.6982 19.2665 26.9843 19.9184 27.0586 20.6101C27.2586 22.7281 27.1025 24.881 27.1025 27.052H24.1426V26.2991C24.1426 24.9551 24.1476 23.6101 24.1426 22.2661C24.1405 21.9776 24.1133 21.6898 24.0615 21.406C24.053 21.2047 24.0022 21.0075 23.9124 20.8271C23.8225 20.6468 23.6956 20.4874 23.54 20.3594C23.3845 20.2313 23.2035 20.1376 23.0093 20.0841C22.815 20.0306 22.6118 20.0187 22.4126 20.0491C21.9945 20.09 21.6067 20.2857 21.3257 20.5979C21.0446 20.91 20.8906 21.316 20.8935 21.7361C20.8865 23.3181 20.8935 24.901 20.8935 26.484V27.0581H17.8616L17.8555 17.854Z" fill="#00A5A8"/>
<path d="M16.0427 27.0587H13.0508V17.8586H16.0427V27.0587Z" fill="#00A5A8"/>
<path d="M14.54 16.546C14.3236 16.5619 14.1062 16.5333 13.9014 16.4617C13.6965 16.3901 13.5085 16.2772 13.3491 16.13C13.1897 15.9828 13.0625 15.8043 12.9749 15.6058C12.8872 15.4074 12.8412 15.1931 12.8398 14.9761C12.8406 14.7551 12.887 14.5366 12.9758 14.3342C13.0647 14.1319 13.1942 13.95 13.3564 13.7999C13.5186 13.6498 13.7098 13.5347 13.9185 13.4618C14.1271 13.3889 14.3485 13.3598 14.5688 13.3761C14.7899 13.3573 15.0126 13.3848 15.2224 13.4569C15.4322 13.5291 15.6246 13.6443 15.7873 13.7951C15.9501 13.9458 16.0795 14.1288 16.1675 14.3325C16.2554 14.5362 16.3 14.7561 16.2981 14.9779C16.2962 15.1998 16.2479 15.4187 16.1565 15.6209C16.0651 15.823 15.9326 16.0039 15.7673 16.1519C15.602 16.2999 15.4075 16.4118 15.1965 16.4804C14.9855 16.5489 14.7627 16.5726 14.542 16.5501L14.54 16.546Z" fill="#00A5A8"/>
</g>
</g>
</g>
<defs>
<clipPath id="clip0_12_380">
<rect width="16" height="15" fill="white" transform="translate(12 12.5)"/>
</clipPath>
<clipPath id="clip1_12_380">
<rect width="16" height="15" fill="white" transform="translate(12 12.5)"/>
</clipPath>
<clipPath id="clip2_12_380">
<rect width="16" height="15" fill="white" transform="translate(12 12.5)"/>
</clipPath>
</defs>
</svg>
