<svg width="50" height="50" viewBox="0 0 50 50" fill="none" xmlns="http://www.w3.org/2000/svg">
<path d="M24.6309 21.4487C26.9375 21.4488 29.149 22.3645 30.7783 23.9956C32.4097 25.6251 33.3262 27.8372 33.3262 30.144C33.3261 32.4508 32.4096 34.6621 30.7783 36.2915C29.1489 37.9228 26.9377 38.8393 24.6309 38.8394C22.324 38.8394 20.1119 37.9229 18.4824 36.2915C16.8513 34.6621 15.9356 32.4507 15.9355 30.144V30.1431L15.9473 29.7124C16.0574 27.5647 16.96 25.5269 18.4873 23.9995C20.1164 22.3706 22.3254 21.4528 24.6299 21.4487H24.6309ZM24.6289 23.4927C21.9402 23.4932 19.5157 25.1128 18.4854 27.5991C17.4569 30.0839 18.0254 32.9444 19.9258 34.8472C21.8285 36.748 24.6899 37.318 27.1748 36.2896C29.5853 35.2908 31.1815 32.9811 31.2773 30.3911H31.2666V30.144C31.2589 26.4797 28.2934 23.5094 24.6289 23.4927Z" fill="#00A5A8" stroke="#00A5A8" stroke-width="0.5"/>
<path d="M38.2349 7.18359C38.597 7.18624 38.9313 7.38021 39.1128 7.69434L39.1138 7.69531C39.2949 8.01168 39.2947 8.39969 39.1138 8.71582L39.1118 8.71777L32.6753 19.6934C35.6083 22.0497 37.4265 25.5266 37.6812 29.2861L37.7007 29.6455C37.8545 33.3526 36.4724 36.966 33.8706 39.627C31.1864 42.374 27.4558 43.843 23.6177 43.6699C19.7814 43.4948 16.2003 41.6899 13.7759 38.7109C11.3514 35.732 10.3118 31.8596 10.9214 28.0664C11.5165 24.352 13.637 21.0605 16.7622 18.9795L10.8892 8.71582C10.7081 8.3996 10.7082 8.01155 10.8892 7.69531L10.8921 7.68945C11.0894 7.36481 11.45 7.17563 11.8315 7.2002V7.19922H20.5854V7.2002C20.9425 7.19811 21.2759 7.3824 21.4624 7.6875L24.4888 12.5635L27.019 7.73438C27.1968 7.39452 27.5495 7.18064 27.9351 7.18457V7.18359H38.2349ZM24.2905 18.7373C21.2575 18.7375 18.3478 19.9429 16.2046 22.0879H16.2036C14.0584 24.2314 12.8541 27.1416 12.854 30.1748C12.854 33.2082 14.0583 36.1192 16.2036 38.2627H16.2046C18.3482 40.4079 21.2582 41.6133 24.2915 41.6133C27.3248 41.6132 30.235 40.408 32.3784 38.2627C34.5237 36.1191 35.7289 33.2087 35.729 30.1758L35.7144 29.6084C35.5708 26.7817 34.3843 24.1014 32.3745 22.0918C30.2307 19.9482 27.3236 18.7411 24.2905 18.7373ZM24.6382 16.6992C26.9064 16.7568 29.1242 17.3857 31.0854 18.5303L36.397 9.22754H28.5493L24.6382 16.6992ZM18.604 17.9639C19.7446 17.4316 20.953 17.0627 22.1978 16.8711L23.3706 14.623L20.0298 9.22754H13.5913L18.604 17.9639Z" fill="#00A5A8" stroke="#00A5A8" stroke-width="0.5"/>
</svg>
