<svg width="50" height="50" viewBox="0 0 50 50" fill="none" xmlns="http://www.w3.org/2000/svg">
<path d="M17.77 10.75C22.7954 10.75 26.8792 14.8924 26.8794 19.9795C26.8794 25.065 22.7973 29.21 17.77 29.21C12.7446 29.2099 8.66064 25.0667 8.66064 19.9795C8.66085 14.8943 12.743 10.7501 17.77 10.75ZM17.77 13.2793C14.1293 13.2793 11.1618 16.2811 11.1616 19.9795C11.1616 23.678 14.1294 26.6807 17.77 26.6807C21.4107 26.6805 24.3774 23.6759 24.3774 19.9795C24.3772 16.2812 21.4104 13.2795 17.77 13.2793Z" fill="#00A5A8" stroke="#00A5A8" stroke-width="0.5"/>
<path d="M35.3083 14.2806C39.1993 14.2806 42.3601 17.4887 42.3601 21.4242C42.3601 25.3597 39.1995 28.5677 35.3083 28.5677C31.4176 28.5675 28.2576 25.3596 28.2576 21.4242C28.2576 17.4888 31.4173 14.2808 35.3083 14.2806ZM35.3083 16.8099C32.804 16.8101 30.7596 18.8776 30.7595 21.4242C30.7595 23.9709 32.804 26.0392 35.3083 26.0394C37.8129 26.0394 39.8582 23.971 39.8582 21.4242C39.858 18.8775 37.8128 16.8099 35.3083 16.8099Z" fill="#00A5A8" stroke="#00A5A8" stroke-width="0.5"/>
<path d="M35.3057 29.2653C39.3109 29.2653 42.9588 31.3313 45.0635 34.7887L45.125 34.902C45.4012 35.478 45.2078 36.1827 44.6562 36.528C44.0654 36.8977 43.2942 36.7099 42.9316 36.1149C41.2843 33.4096 38.4337 31.7966 35.3057 31.7965C32.5003 31.7965 29.9302 33.1097 28.2393 35.3365C29.1346 36.2149 29.9343 37.2121 30.6084 38.3209C30.9702 38.9147 30.7884 39.692 30.2002 40.0602L30.1992 40.0612C29.9962 40.1865 29.7684 40.2487 29.5439 40.2487C29.1258 40.2486 28.7142 40.0366 28.4775 39.6471C26.1654 35.8478 22.1564 33.5817 17.7686 33.5817C13.5178 33.5817 9.63073 35.708 7.29004 39.2955L7.06836 39.6471C6.7058 40.2422 5.93467 40.4301 5.34375 40.0602C4.75552 39.692 4.57477 38.9147 4.93652 38.3209C7.70594 33.7712 12.5029 31.0524 17.7686 31.0524C20.8865 31.0524 23.8369 32.0122 26.3047 33.733C28.4313 30.9667 31.6364 29.3196 35.1426 29.2701L35.1455 29.2653H35.3057Z" fill="#00A5A8" stroke="#00A5A8" stroke-width="0.5"/>
</svg>
