<svg width="52" height="52" viewBox="0 0 52 52" fill="none" xmlns="http://www.w3.org/2000/svg">
<path d="M25.9999 47.3417C25.2428 47.3535 24.4958 47.1668 23.8333 46.8L23.1833 46.4317C18.1204 43.5672 13.9083 39.4105 10.9773 34.3858C8.04625 29.3612 6.50121 23.6487 6.49993 17.8317V17.5283C6.49306 16.7611 6.69003 16.0058 7.0707 15.3396C7.45138 14.6734 8.0021 14.1203 8.6666 13.7367L23.8333 5.2C24.492 4.81967 25.2393 4.61945 25.9999 4.61945C26.7606 4.61945 27.5078 4.81967 28.1666 5.2L43.3333 13.7367C43.9978 14.1203 44.5485 14.6734 44.9292 15.3396C45.3098 16.0058 45.5068 16.7611 45.4999 17.5283V17.8317C45.4943 23.653 43.9427 29.3684 41.0039 34.3934C38.065 39.4185 33.8442 43.5728 28.7733 46.4317L28.1233 46.8C27.4736 47.1595 26.7424 47.346 25.9999 47.3417ZM25.9999 8.99167L10.8333 17.5283V17.8317C10.8369 22.8824 12.1831 27.8413 14.7339 32.2006C17.2847 36.5598 20.9485 40.1627 25.3499 42.64L25.9999 43.0083L26.6499 42.64C31.0513 40.1627 34.7151 36.5598 37.2659 32.2006C39.8168 27.8413 41.1629 22.8824 41.1666 17.8317V17.5283L25.9999 8.99167Z" fill="#00A5A8"/>
</svg>
