<svg width="52" height="52" viewBox="0 0 52 52" fill="none" xmlns="http://www.w3.org/2000/svg">
<path d="M25.9996 2.66669C38.8864 2.66669 49.3334 13.1129 49.3336 25.9997C49.3336 38.8866 38.8865 49.3337 25.9996 49.3337C13.1129 49.3335 2.66663 38.8865 2.66663 25.9997C2.6668 13.1131 13.113 2.66686 25.9996 2.66669ZM25.9996 5.99969C14.9543 5.99987 5.99981 14.9544 5.99963 25.9997C5.99963 37.0451 14.9542 45.9995 25.9996 45.9997C37.0452 45.9997 45.9996 37.0453 45.9996 25.9997C45.9995 14.9543 37.0451 5.99969 25.9996 5.99969ZM25.9996 11.3337C34.0997 11.3337 40.6664 17.8997 40.6666 25.9997C40.6666 34.0999 34.0998 40.6667 25.9996 40.6667C17.8996 40.6665 11.3336 34.0998 11.3336 25.9997C11.3338 17.8998 17.8997 11.3339 25.9996 11.3337ZM25.9996 14.6667C19.7405 14.6669 14.6668 19.7406 14.6666 25.9997C14.6666 32.259 19.7404 37.3335 25.9996 37.3337C32.259 37.3337 37.3336 32.2591 37.3336 25.9997C37.3334 19.7405 32.2589 14.6667 25.9996 14.6667ZM25.9996 19.9997C29.313 19.9997 31.9995 22.6864 31.9996 25.9997C31.9996 29.3132 29.3131 31.9997 25.9996 31.9997C22.6863 31.9995 19.9996 29.3131 19.9996 25.9997C19.9998 22.6865 22.6864 19.9999 25.9996 19.9997ZM25.9996 23.3337C25.2925 23.3338 24.6139 23.6139 24.1139 24.114C23.6139 24.614 23.3337 25.2926 23.3336 25.9997C23.3336 26.7068 23.614 27.3854 24.1139 27.8854C24.6139 28.3855 25.2925 28.6666 25.9996 28.6667C26.7069 28.6667 27.3853 28.3855 27.8854 27.8854C28.3855 27.3853 28.6666 26.7069 28.6666 25.9997C28.6665 25.2926 28.3854 24.614 27.8854 24.114C27.3853 23.6141 26.7067 23.3337 25.9996 23.3337Z" fill="#00A5A8" stroke="#15243D"/>
</svg>
