<svg width="52" height="52" viewBox="0 0 52 52" fill="none" xmlns="http://www.w3.org/2000/svg">
<path d="M39.6499 19.5H31.0998L36.3232 4.9907C36.3938 4.79439 36.4161 4.58399 36.3883 4.37725C36.3605 4.1705 36.2834 3.97348 36.1634 3.8028C36.0435 3.63213 35.8843 3.49281 35.6992 3.39659C35.5141 3.30038 35.3085 3.2501 35.0999 3.25H19.4999C19.2272 3.25003 18.9613 3.33585 18.74 3.49531C18.5187 3.65478 18.3532 3.87981 18.2669 4.13855L11.1169 25.5885C11.0517 25.784 11.0339 25.9921 11.0649 26.1957C11.0959 26.3994 11.1749 26.5928 11.2953 26.7599C11.4157 26.9271 11.5741 27.0632 11.7575 27.1571C11.9409 27.251 12.1439 27.3 12.3499 27.3H22.2975L16.3058 47.073C16.2188 47.3603 16.2339 47.6688 16.3485 47.9463C16.4632 48.2237 16.6703 48.4529 16.9347 48.595C17.1991 48.7371 17.5045 48.7833 17.7991 48.7257C18.0938 48.6682 18.3594 48.5105 18.5509 48.2794L40.6509 21.6294C40.8084 21.4394 40.9085 21.2085 40.9395 20.9637C40.9706 20.7189 40.9314 20.4703 40.8264 20.2469C40.7214 20.0236 40.555 19.8348 40.3467 19.7025C40.1384 19.5703 39.8967 19.5 39.6499 19.5ZM20.6634 41.6598L25.294 26.377C25.3529 26.1828 25.3654 25.9774 25.3307 25.7775C25.296 25.5775 25.2149 25.3885 25.094 25.2254C24.973 25.0624 24.8156 24.93 24.6343 24.8388C24.453 24.7475 24.2529 24.7 24.0499 24.7H14.1537L20.4366 5.85H33.25L28.0266 20.3593C27.9561 20.5556 27.9337 20.766 27.9615 20.9728C27.9893 21.1795 28.0665 21.3765 28.1864 21.5472C28.3064 21.7179 28.4656 21.8572 28.6507 21.9534C28.8358 22.0496 29.0413 22.0999 29.2499 22.1H36.8829L20.6634 41.6598Z" fill="#00A5A8"/>
</svg>
