<svg width="32" height="32" viewBox="0 0 32 32" fill="none" xmlns="http://www.w3.org/2000/svg">
<path d="M5.33324 18.6667C5.08093 18.6675 4.83355 18.5968 4.61985 18.4627C4.40614 18.3285 4.23489 18.1365 4.12597 17.9089C4.01706 17.6813 3.97497 17.4275 4.00457 17.1769C4.03418 16.9263 4.13428 16.6893 4.29324 16.4933L17.4932 2.89335C17.5923 2.77906 17.7272 2.70182 17.8759 2.67432C18.0246 2.64683 18.1782 2.6707 18.3115 2.74202C18.4449 2.81334 18.55 2.92788 18.6097 3.06682C18.6694 3.20577 18.68 3.36088 18.6399 3.50668L16.0799 11.5333C16.0044 11.7354 15.9791 11.9527 16.006 12.1667C16.033 12.3807 16.1115 12.5849 16.2347 12.7619C16.3579 12.9389 16.5223 13.0834 16.7136 13.1829C16.9049 13.2824 17.1176 13.334 17.3332 13.3333H26.6666C26.9189 13.3325 27.1663 13.4032 27.38 13.5374C27.5937 13.6715 27.7649 13.8635 27.8738 14.0911C27.9828 14.3187 28.0249 14.5726 27.9952 14.8231C27.9656 15.0737 27.8655 15.3107 27.7066 15.5067L14.5066 29.1067C14.4076 29.221 14.2726 29.2982 14.1239 29.3257C13.9752 29.3532 13.8216 29.3293 13.6883 29.258C13.5549 29.1867 13.4498 29.0722 13.3901 28.9332C13.3305 28.7943 13.3198 28.6392 13.3599 28.4933L15.9199 20.4667C15.9954 20.2646 16.0207 20.0473 15.9938 19.8333C15.9668 19.6194 15.8884 19.4151 15.7651 19.2381C15.6419 19.0611 15.4775 18.9167 15.2862 18.8171C15.0949 18.7176 14.8822 18.666 14.6666 18.6667H5.33324Z" stroke="#00A5A8" stroke-width="2.66667" stroke-linecap="round" stroke-linejoin="round"/>
</svg>
