<svg width="20" height="20" viewBox="0 0 20 20" fill="none" xmlns="http://www.w3.org/2000/svg">
<g clip-path="url(#clip0_2_68)">
<path fill-rule="evenodd" clip-rule="evenodd" d="M15.1724 7.67247L9.33906 13.5058C9.18279 13.662 8.97086 13.7498 8.74989 13.7498C8.52892 13.7498 8.317 13.662 8.16073 13.5058L4.82739 10.1725L6.00573 8.99414L8.74989 11.7383L13.9941 6.49414L15.1724 7.67247Z" fill="#00A5A8"/>
<path fill-rule="evenodd" clip-rule="evenodd" d="M9.99992 2.49998C9.01501 2.49998 8.03974 2.69397 7.12979 3.07088C6.21985 3.44779 5.39306 4.00024 4.69662 4.69668C4.00018 5.39312 3.44773 6.21991 3.07082 7.12985C2.69391 8.0398 2.49992 9.01507 2.49992 9.99998C2.49992 10.9849 2.69391 11.9602 3.07082 12.8701C3.44773 13.78 4.00018 14.6068 4.69662 15.3033C5.39306 15.9997 6.21985 16.5522 7.12979 16.9291C8.03974 17.306 9.01501 17.5 9.99992 17.5C11.989 17.5 13.8967 16.7098 15.3032 15.3033C16.7097 13.8968 17.4999 11.9891 17.4999 9.99998C17.4999 8.01086 16.7097 6.1032 15.3032 4.69668C13.8967 3.29016 11.989 2.49998 9.99992 2.49998ZM0.833252 9.99998C0.833252 4.93748 4.93742 0.833313 9.99992 0.833313C15.0624 0.833313 19.1666 4.93748 19.1666 9.99998C19.1666 15.0625 15.0624 19.1666 9.99992 19.1666C4.93742 19.1666 0.833252 15.0625 0.833252 9.99998Z" fill="#00A5A8"/>
</g>
<defs>
<clipPath id="clip0_2_68">
<rect width="20" height="20" fill="white"/>
</clipPath>
</defs>
</svg>
